<svg id="Capa_1" enable-background="new 0 0 512 512" height="512" viewBox="0 0 512 512" width="512" xmlns="http://www.w3.org/2000/svg"><g><g><path clip-rule="evenodd" d="m114.449 198.714 29.135-23.755c-10.319-7.937-20.638-15.846-30.957-23.755h-15.675c-5.776 0-10.487 4.712-10.487 10.489v10.377c-.001 13.294 14.861 26.813 27.984 26.644z" fill="#ffbc85" fill-rule="evenodd"/></g><g><path clip-rule="evenodd" d="m400.944 469.695c3.87-.252 6.029-1.683 6.029-8.47v-78.865c0-46.837-48.343-81.782-90.6-90.28l-.449.309-97.19-3.646-100.555 3.394-.084-.056c-42.258 8.498-90.6 43.443-90.6 90.28v78.865c0 6.787 2.159 8.217 6.029 8.47 122.482-.001 244.937-.001 367.42-.001z" fill="#f9f7f7" fill-rule="evenodd"/></g><g><path clip-rule="evenodd" d="m189.711 314.096 27.536-25.297c-.308 0-.589 0-.869 0-13.74-19.828-36.706-32.393-60.428-25.886-13.684 10.405-32.864 25.55-37.855 29.168l.084.056 46.408 34.497c9.842 6.142 2.972 6.983 18.114-6.086z" fill="#cecece" fill-rule="evenodd"/></g><g><path clip-rule="evenodd" d="m269.88 326.632 46.043-34.244.449-.309c-5.103-3.702-25.013-19.436-38.753-29.841-28.854-2.272-49.689 12.957-60.372 26.56l26.106 24.007 8.412 7.741c15.143 13.07 8.273 12.228 18.115 6.086z" fill="#cecece" fill-rule="evenodd"/></g><g><path clip-rule="evenodd" d="m235.306 344.469 8.048-31.664-26.107-24.007-27.536 25.298 7.768 30.373h18.899z" fill="#3987d0" fill-rule="evenodd"/></g><g><path clip-rule="evenodd" d="m261.244 430.963-25.938-86.494h-18.928-18.9l-25.966 86.494c-.224.757-.421.813-.056 1.458l19.657 37.273h25.265 25.265l19.685-37.273c.336-.644.14-.701-.084-1.458z" fill="#7bacdf" fill-rule="evenodd"/></g><g><path clip-rule="evenodd" d="m235.306 344.469 8.048-31.664-26.107-24.007-9.477 8.694 16.684 15.313-8.076 31.664z" fill="#0067b4" fill-rule="evenodd"/></g><g><path clip-rule="evenodd" d="m261.244 430.963-25.938-86.494h-18.928l25.966 86.494c.224.757.393.813.056 1.458l-19.685 37.273h18.928l19.685-37.273c.336-.644.14-.701-.084-1.458z" fill="#3987d0" fill-rule="evenodd"/></g><g><path clip-rule="evenodd" d="m191.31 312.609 16.46-15.117 9.478-8.694c-.308 0-.589 0-.869 0-8.272 0-16.544-1.767-25.994-5.273-12.338-4.6-24.031-11.807-34.434-20.614-5.019 3.814-10.768 8.274-16.292 12.565 13.628 16.07 31.294 29.56 50.586 36.74.364.141.728.281 1.065.393z" fill="#b5adb6" fill-rule="evenodd"/></g><g><path clip-rule="evenodd" d="m242.568 312.076c19.517-7.348 37.379-21.175 51.034-37.554-5.468-4.263-11.132-8.61-15.983-12.284-10.599 9.115-22.573 16.547-35.247 21.287-9.113 3.394-17.133 5.16-25.125 5.273z" fill="#b5adb6" fill-rule="evenodd"/></g><g><path clip-rule="evenodd" d="m395.111 469.695h.196c-.056 0-.112 0-.196 0zm-100.022-161.798c39.734 11.359 81.347 44.593 81.347 88.036v73.761h18.675.196 5.636c3.87-.252 6.029-1.683 6.029-8.47v-78.864c0-46.837-48.343-81.782-90.6-90.28l-.449.309z" fill="#e2e2e2" fill-rule="evenodd"/></g><g><path clip-rule="evenodd" d="m277.62 262.239c20.358-17.529 35.584-41.2 40.687-63.524 1.206-5.301 1.851-10.545 1.851-15.594v-50.539-7.572h-19.096c-40.407 0-48.819-49.782-98.199-49.782h-32.808c-37.827 0-9.029 57.382-52.549 57.354h-4.879v50.539c0 5.048.617 10.293 1.823 15.594 5.16 22.633 20.722 46.64 41.501 64.197 10.403 8.806 22.096 16.014 34.434 20.614 9.45 3.506 17.722 5.273 25.994 5.273h.869c7.992-.112 16.011-1.879 25.125-5.273 12.674-4.74 24.647-12.173 35.247-21.287z" fill="#ffe5c1" fill-rule="evenodd"/></g><g><path clip-rule="evenodd" d="m185.028 225.975c0 37.245 62.7 37.245 62.7 0 0-3.45-2.832-6.282-6.281-6.282h-50.109c-3.477 0-6.31 2.832-6.31 6.282z" fill="#fbf8f8" fill-rule="evenodd"/></g><g><path clip-rule="evenodd" d="m318.307 198.714c13.123.168 28.013-13.378 28.013-26.644v-10.377c0-5.777-4.739-10.489-10.515-10.489h-15.647l-12.562 19.352z" fill="#ffbc85" fill-rule="evenodd"/></g><g><path clip-rule="evenodd" d="m117.506 151.204c43.52 0 14.721-57.382 52.549-57.382h32.808c49.38 0 57.792 49.782 98.199 49.782h19.096v-15.117-34.188c0-52.334-57.961-86.662-106.668-86.802h-.645c-21.928.056-41.893 7.068-53.783 22.521-50.137 4.403-46.436 71.153-46.436 79.959v16.996 24.232h4.88z" fill="#838383" fill-rule="evenodd"/></g><g><path clip-rule="evenodd" d="m320.158 94.299c0-52.334-57.961-86.662-106.668-86.802h-.645c-21.872.056-41.809 7.04-53.698 22.437 10.151-4.964 22.152-7.292 34.771-7.348h.645c48.707.168 106.668 34.469 106.668 86.83v34.188h18.928v-15.117-34.188z" fill="#595959" fill-rule="evenodd"/></g><g><path clip-rule="evenodd" d="m301.062 143.604c-40.407 0-48.819-49.782-98.199-49.782h-32.808c-15.423 0-19.769 9.508-22.461 20.782h51.483c49.38 0 55.914 46.556 96.321 46.781l5.832.056c0 14.724.477 20.305-4.01 34.609-5.804 18.594-15.338 38.143-31.322 51.913-10.599 9.115-22.573 16.547-35.247 21.287-8.552 3.197-16.797 5.217-25.994 5.273-17.133 0-53.923-19.464-67.214-30.598 5.496 6.815 11.721 13.266 18.507 18.987 10.403 8.806 22.096 16.014 34.434 20.614 9.45 3.506 17.722 5.273 25.994 5.273h.869c7.992-.112 16.011-1.879 25.125-5.273 12.675-4.74 24.648-12.172 35.247-21.287 20.358-17.529 35.584-41.2 40.687-63.524 1.206-5.301 1.851-10.545 1.851-15.594v-31.916-7.6h-19.095z" fill="#fed1a3" fill-rule="evenodd"/></g><g><path d="m333.645 477.195c-4.142 0-7.5-3.358-7.5-7.5v-55.7c0-4.142 3.358-7.5 7.5-7.5s7.5 3.358 7.5 7.5v55.7c.001 4.142-3.357 7.5-7.5 7.5z"/></g><g><path clip-rule="evenodd" d="m333.028 335.326-17.666 17.641c-3.645 3.674-3.645 9.648 0 13.294l7.207 7.208c-2.552 4.796-4.627 9.9-6.141 15.229h-10.347c-5.16 0-9.394 4.207-9.394 9.395v24.961c0 5.16 4.234 9.395 9.394 9.395h10.74c1.57 5.16 3.645 10.125 6.197 14.78l-7.655 7.629c-3.645 3.674-3.645 9.648 0 13.294l17.666 17.669c3.645 3.646 9.618 3.646 13.263 0l7.655-7.657c4.655 2.552 9.618 4.628 14.778 6.198v10.742c0 5.16 4.234 9.395 9.394 9.395h24.956c5.16 0 9.394-4.235 9.394-9.395v-10.349c5.328-1.514 10.431-3.59 15.226-6.142l7.207 7.208c3.645 3.646 9.618 3.646 13.263 0l17.666-17.669c3.645-3.646 3.645-9.62 0-13.266l-6.814-6.815c2.776-4.908 5.019-10.125 6.674-15.622h9.422c5.16 0 9.394-4.235 9.394-9.395v-24.961c0-5.189-4.234-9.395-9.394-9.395h-9.029c-1.598-5.665-3.814-11.05-6.59-16.098l6.337-6.338c3.645-3.646 3.645-9.62 0-13.294l-17.666-17.641c-3.645-3.646-9.618-3.646-13.263 0l-6.337 6.338c-5.047-2.777-10.431-4.992-16.095-6.591v-9.031c0-5.189-4.234-9.395-9.394-9.395h-24.956c-5.16 0-9.394 4.207-9.394 9.395v9.423c-5.496 1.655-10.712 3.898-15.619 6.675l-6.814-6.815c-3.646-3.646-9.619-3.646-13.265 0z" fill="#838383" fill-rule="evenodd"/></g><g><path clip-rule="evenodd" d="m404.477 429.785c-1.346 14.388-4.515 27.878-9.197 39.909-4.374 11.275-10.011 21.259-16.656 29.532-1.29 1.599-2.636 3.141-3.982 4.6 1.066.421 2.243.673 3.477.673h24.956c3.701 0 6.898-2.16 8.44-5.273.617-1.262.953-2.664.953-4.123v-10.349c5.328-1.514 10.431-3.59 15.226-6.142l7.207 7.208c3.645 3.646 9.618 3.646 13.263 0l17.666-17.669c3.645-3.646 3.645-9.62 0-13.266l-6.814-6.815c2.776-4.908 5.019-10.125 6.674-15.622h9.422c5.16 0 9.394-4.235 9.394-9.395v-24.961c0-5.189-4.234-9.395-9.394-9.395h-9.029c-1.598-5.665-3.814-11.05-6.59-16.098l6.337-6.338c3.645-3.646 3.645-9.62 0-13.294l-17.666-17.641c-3.645-3.646-9.618-3.646-13.263 0l-6.337 6.338c-5.047-2.777-10.431-4.992-16.095-6.591v-9.031c0-5.189-4.234-9.395-9.394-9.395h-24.956c-2.131 0-4.066.701-5.664 1.907-.785.589-1.514 1.346-2.075 2.188 16.572 15.369 28.77 40.442 33.088 69.919 1.262.813 2.44 1.767 3.505 2.777 4.515 4.319 7.319 10.405 7.319 17.136s-2.804 12.789-7.319 17.108c-.786.757-1.599 1.458-2.496 2.103z" fill="#595959" fill-rule="evenodd"/></g><g><path clip-rule="evenodd" d="m390.597 386.875c-13.095 0-23.695 10.601-23.695 23.699 0 13.069 10.599 23.699 23.695 23.699 13.095 0 23.695-10.629 23.695-23.699-.001-13.098-10.6-23.699-23.695-23.699z" fill="#f9f7f7" fill-rule="evenodd"/></g><g><path clip-rule="evenodd" d="m393.176 410.574c0 9.283-5.356 17.332-13.151 21.203 3.197 1.599 6.786 2.496 10.571 2.496 5.188 0 9.983-1.683 13.88-4.487.897-.645 1.711-1.346 2.496-2.103 4.515-4.319 7.319-10.377 7.319-17.108s-2.804-12.817-7.319-17.136c-1.066-1.01-2.243-1.963-3.505-2.777-3.701-2.384-8.132-3.786-12.871-3.786-3.786 0-7.375.897-10.571 2.468 7.795 3.897 13.151 11.947 13.151 21.23z" fill="#e2e2e2" fill-rule="evenodd"/></g><g><path d="m170.48 179.365c1.201-1.201 2.792-1.862 4.482-1.862s3.281.661 4.482 1.862c1.465 1.465 3.384 2.197 5.304 2.197 1.919 0 3.838-.732 5.303-2.196 2.929-2.929 2.93-7.677.001-10.607-4.034-4.035-9.393-6.257-15.091-6.257-5.697 0-11.056 2.222-15.09 6.257-2.928 2.93-2.928 7.678.001 10.607 2.93 2.928 7.678 2.929 10.608-.001z"/><path d="m253.312 179.365c1.201-1.201 2.798-1.862 4.497-1.862s3.296.661 4.497 1.862c1.464 1.465 3.384 2.197 5.304 2.197 1.919 0 3.838-.732 5.303-2.196 2.929-2.929 2.93-7.677.001-10.607-4.034-4.035-9.398-6.257-15.104-6.257s-11.07 2.222-15.104 6.257c-2.929 2.929-2.928 7.678.001 10.607 2.927 2.929 7.676 2.929 10.605-.001z"/><path d="m177.528 225.975c0 10.845 4.489 20.374 12.64 26.83 7.005 5.548 16.313 8.604 26.209 8.604 19.306 0 38.85-12.171 38.85-35.434 0-7.6-6.182-13.783-13.781-13.783h-50.109c-7.614 0-13.809 6.183-13.809 13.783zm62.67 1.218c-.735 15.131-15.189 19.216-23.82 19.216s-23.085-4.085-23.82-19.216z"/><path d="m475.115 381.197h-3.56c-.86-2.42-1.84-4.8-2.92-7.13l2.5-2.5c6.56-6.57 6.57-17.28-.01-23.911l-17.66-17.63c-3.18-3.18-7.41-4.93-11.93-4.93s-8.76 1.75-11.94 4.93l-2.49 2.5c-2.33-1.09-4.71-2.06-7.14-2.93v-3.55c0-9.32-7.57-16.9-16.89-16.9h-24.951c-1.62 0-3.19.23-4.68.66-15.843-11.841-34.894-20.62-53.908-24.716-2.95-2.212-8.384-6.433-14.547-11.221-5.032-3.91-10.51-8.165-15.684-12.143 16.414-15.984 29.123-35.875 34.952-56.124 6.678-1.381 13.433-5.063 18.9-10.46 6.778-6.692 10.665-15.1 10.665-23.07v-10.377c0-9.919-8.082-17.989-18.016-17.989h-8.147v-.101-15.117-34.189c0-20.024-7.776-39.071-22.486-55.082-12.804-13.935-30.88-25.363-50.897-32.18-18.776-6.394-38.643-8.528-55.94-6.003-18.189 2.653-33.033 10.195-43.152 21.884-20.545 2.949-51.133 18.547-50.074 85.434.01.667.02 1.213.02 1.624v16.996 16.732h-8.175c-9.918 0-17.987 8.07-17.987 17.989v10.377c0 7.986 3.886 16.401 10.661 23.09 5.457 5.388 12.203 9.062 18.877 10.441 5.918 20.556 18.924 40.749 35.705 56.857-4.763 3.669-9.742 7.535-14.321 11.095-6.35 4.94-11.95 9.29-14.96 11.54-19.43 4.2-38.931 13.26-55.091 25.621-3.29 2.52-3.91 7.23-1.4 10.52 1.48 1.93 3.71 2.94 5.97 2.94 1.59 0 3.19-.5 4.55-1.54 13.75-10.52 30.851-18.621 47.401-22.501l43.761 32.521c.16.12.33.23.5.34 1.63 1.02 2.7 1.85 3.55 2.52 2.68 2.1 4.98 2.92 7.02 2.92 3.4 0 6.07-2.3 8.55-4.82 1.26-1.28 3.07-3.12 5.8-5.57l4.16 16.26-25.371 84.512c-.9 2.47-.72 4.88.53 7.17l13.82 26.211h-77.902v-48.201c0-4.14-3.36-7.5-7.5-7.5s-7.5 3.36-7.5 7.5v48.201h-46.423c-.82 0-1.61.01-2.36.02-.61.01-1.33.03-1.98.02-.01-.29-.02-.62-.02-1.01v-78.872c0-13.25 4.33-26.111 12.87-38.221 2.39-3.38 1.58-8.06-1.8-10.45-3.39-2.39-8.07-1.58-10.45 1.8-10.37 14.69-15.62 30.461-15.62 46.871v78.872c0 3.57.43 8.73 4.11 12.35 3.87 3.8 8.81 3.72 13.16 3.64.66-.01 1.36-.02 2.09-.02h151.744.02 50.521.02 72.142l13.92 13.92c3.18 3.18 7.42 4.94 11.94 4.94s8.75-1.76 11.93-4.94l3.83-3.82c1.89.88 3.83 1.69 5.8 2.43v5.37c0 9.32 7.58 16.9 16.9 16.9h24.951c9.32 0 16.89-7.58 16.89-16.9v-4.88c2.1-.76 4.18-1.59 6.22-2.51l3.41 3.41c3.18 3.18 7.42 4.94 11.94 4.94s8.75-1.76 11.93-4.94l17.67-17.66c6.58-6.59 6.58-17.29 0-23.881l-2.93-2.92c1.05-2.2 2.01-4.43 2.86-6.71h4.05c9.31 0 16.89-7.58 16.89-16.89v-24.961c.003-9.318-7.577-16.898-16.888-16.898zm-147.457-198.076v-24.416h8.147c1.634 0 3.015 1.369 3.015 2.989v10.377c0 3.927-2.319 8.561-6.204 12.396-1.598 1.577-3.359 2.925-5.173 3.993.138-1.805.215-3.589.215-5.339zm-31.873 102.592c2.987 2.321 5.728 4.45 8.112 6.294l-38.254 28.431c-.634.4-1.207.781-1.725 1.14-1.658-1.655-3.924-3.834-7.16-6.631l-8.233-7.572c-.058-.056-.118-.11-.178-.163l-14.359-13.206c3.517-.884 7.161-2.025 11.005-3.451 11.511-4.291 22.636-10.766 32.805-18.75 5.803 4.443 12.192 9.407 17.987 13.908zm-60.808 29.581-5.507 21.671h-26.171l-5.21-20.38 19.157-17.599zm-75.258-277.805c2.089-.184 4.005-1.233 5.285-2.894 10.788-14.003 28.845-19.596 47.916-19.596 12.313 0 25.049 2.333 36.519 6.238 29.163 9.931 63.218 35.024 63.218 73.062v34.188 7.616h-11.596c-16.225 0-26.597-9.728-38.608-20.993-14.389-13.494-30.697-28.789-59.591-28.789h-32.808c-24.368 0-28.303 19.175-31.177 33.177-3.073 14.974-5.41 23.207-18.751 24.12v-16.646-16.996c0-.471-.009-1.097-.021-1.861-.484-30.59 5.996-67.673 39.614-70.626zm-65.754 134.582v-10.377c0-1.648 1.34-2.989 2.987-2.989h8.175v24.416c0 1.764.075 3.551.209 5.353-1.815-1.066-3.576-2.412-5.172-3.988-3.882-3.832-6.199-8.473-6.199-12.415zm27.798 24.98c-1.085-4.772-1.636-9.459-1.636-13.931v-24.48c26.297-1.294 30.58-22.167 33.445-36.127 3.221-15.698 5.342-21.191 16.482-21.191h32.808c22.96 0 35.769 12.013 49.329 24.73 13.133 12.316 26.712 25.051 48.87 25.051h11.596v32.017c0 4.389-.56 9.076-1.663 13.927-7.509 32.952-38.137 67.108-71.231 79.446-8.836 3.278-16.267 4.804-23.386 4.804-7.118 0-14.549-1.526-23.374-4.8-33.104-12.341-63.732-46.497-71.24-79.446zm62.975 111.434c-.07.07-.15.14-.22.21l-6.81 6.25c-3.23 2.8-5.5 4.98-7.16 6.63-.52-.36-1.09-.74-1.72-1.14l-38.251-28.431c2.53-1.96 5.44-4.21 8.51-6.6 5.366-4.169 11.275-8.763 16.721-12.943 9.941 7.682 20.772 13.923 31.968 18.097 4.343 1.611 8.428 2.849 12.366 3.77zm125.303 141.093c-3.44 3.47-5.08 8.08-4.89 12.62h-51.061l13.89-26.311c1.79-3.43.78-6.17.45-7.08l-7.97-26.531c-1.19-3.97-5.37-6.22-9.34-5.03-3.96 1.19-6.21 5.37-5.02 9.34l7.39 24.621-16.37 30.991h-41.481l-16.36-31.021 23.781-79.212h26.561l5.98 21.391c.93 3.31 3.94 5.48 7.22 5.48.67 0 1.35-.09 2.02-.28 3.99-1.11 6.32-5.25 5.2-9.24l-6.97-24.941 4.463-17.568c3.534 3.089 5.729 5.317 7.199 6.813 2.473 2.517 5.143 4.814 8.546 4.814 2.038 0 4.338-.824 7.016-2.916.859-.671 1.928-1.506 3.557-2.523.172-.107.34-.222.503-.343l43.756-32.519c15.453 3.578 30.933 10.53 44.193 19.993-.7 1.84-1.08 3.84-1.08 5.92v4.05c-2.27.85-4.51 1.8-6.7 2.85l-2.93-2.92c-3.18-3.18-7.41-4.93-11.93-4.93s-8.75 1.75-11.93 4.92l-17.69 17.67c-6.55 6.6-6.55 17.31.02 23.881l3.42 3.42c-.92 2.04-1.76 4.11-2.52 6.21h-4.88c-9.31 0-16.89 7.58-16.89 16.9v24.961c0 9.31 7.58 16.89 16.89 16.89h5.37c.74 1.97 1.55 3.91 2.43 5.8zm166.964-26.52c0 1.01-.88 1.89-1.89 1.89h-9.42c-3.31 0-6.23 2.17-7.19 5.34-1.47 4.89-3.49 9.63-6.02 14.09-1.66 2.93-1.16 6.61 1.23 9l6.81 6.81c.72.72.72 1.94 0 2.66l-17.66 17.67c-.47.47-1.04.54-1.33.54-.3 0-.86-.07-1.33-.54l-7.21-7.21c-2.33-2.33-5.91-2.87-8.82-1.32-4.39 2.34-9.02 4.2-13.76 5.55-3.22.92-5.45 3.86-5.45 7.22v10.34c0 1.01-.88 1.9-1.89 1.9h-24.951c-1.01 0-1.9-.89-1.9-1.9v-10.74c0-3.29-2.15-6.19-5.28-7.16-.01 0-.02-.01-.03-.01-4.69-1.43-9.19-3.31-13.36-5.6-1.13-.62-2.37-.92-3.6-.92-1.95 0-3.87.75-5.31 2.19l-4.33 4.34-3.32 3.32c-.47.47-1.04.54-1.33.54-.3 0-.86-.07-1.33-.54l-3.32-3.32-14.34-14.35c-.19-.19-.33-.41-.42-.65-.26-.68-.12-1.5.41-2.03l7.65-7.63c2.36-2.35 2.89-5.99 1.28-8.91-2.28-4.18-4.17-8.67-5.6-13.36-.96-3.16-3.87-5.32-7.17-5.32h-10.74c-1.01 0-1.89-.88-1.89-1.89v-24.961c0-1.03.86-1.9 1.89-1.9h10.35c3.35 0 6.29-2.22 7.21-5.45 1.35-4.74 3.21-9.37 5.55-13.76 1.55-2.91 1.01-6.49-1.32-8.82l-7.2-7.21c-.73-.72-.72-1.96-.01-2.68l17.67-17.64v-.01c.47-.46 1.03-.53 1.33-.53.29 0 .86.07 1.33.53l6.81 6.82c2.38 2.38 6.06 2.88 9 1.22 4.46-2.52 9.2-4.55 14.08-6.02 3.17-.95 5.34-3.87 5.34-7.18v-3.62-5.8c0-1.03.87-1.9 1.9-1.9h11.45 13.5c1.03 0 1.89.87 1.89 1.9v9.03c0 3.36 2.24 6.3 5.47 7.22 5.06 1.42 9.94 3.42 14.51 5.94 2.93 1.61 6.56 1.09 8.92-1.27l6.34-6.34c.47-.46 1.03-.53 1.33-.53.29 0 .86.07 1.33.54l17.64 17.61c.74.75.75 1.99.02 2.71l-6.34 6.34c-2.35 2.36-2.87 5.99-1.26 8.92 2.51 4.57 4.51 9.46 5.94 14.52.91 3.23 3.86 5.46 7.22 5.46h9.03c1.02 0 1.89.87 1.89 1.9v24.961z"/><path d="m390.597 379.375c-17.201 0-31.195 13.996-31.195 31.199s13.994 31.199 31.195 31.199 31.195-13.996 31.195-31.199c-.001-17.203-13.995-31.199-31.195-31.199zm0 47.397c-8.929 0-16.194-7.267-16.194-16.199s7.265-16.199 16.194-16.199 16.194 7.267 16.194 16.199c0 8.933-7.265 16.199-16.194 16.199z"/></g></g></svg>